<svg xmlns="http://www.w3.org/2000/svg" version="1.1" xmlns:xlink="http://www.w3.org/1999/xlink" xmlns:svgjs="http://svgjs.dev/svgjs" viewBox="0 0 800 800" opacity="1"><defs><symbol id="bbburst-shape-1" viewBox="0 0 194 167"><path d="m97 0 96.129 166.5H.871L97 0Z"></path></symbol><symbol id="bbburst-shape-4" viewBox="0 0 149 143"><path d="M71.647 2.781c.898-2.764 4.808-2.764 5.706 0l15.445 47.534a3 3 0 0 0 2.853 2.073h49.98c2.906 0 4.115 3.719 1.764 5.427L106.96 87.193a2.999 2.999 0 0 0-1.09 3.354l15.445 47.534c.898 2.764-2.266 5.062-4.617 3.354l-40.435-29.378a3 3 0 0 0-3.526 0l-40.435 29.378c-2.351 1.708-5.515-.59-4.617-3.354L43.13 90.547a3 3 0 0 0-1.09-3.354L1.605 57.815c-2.35-1.708-1.142-5.427 1.764-5.427h49.98a3 3 0 0 0 2.853-2.073L71.647 2.781Z"></path></symbol><symbol id="bbburst-shape-6" viewBox="0 0 133 116"><path d="M59.7487 10.2513c-13.6683-13.66839-35.8291-13.66839-49.4974 0-13.66839 13.6683-13.66839 35.8291 0 49.4974l49.4974-49.4974ZM66.5 66.5 41.7513 91.2487 66.5 115.997l24.7487-24.7483L66.5 66.5Zm56.249-6.7513c13.668-13.6683 13.668-35.8291 0-49.4974-13.669-13.66839-35.8294-13.66839-49.4977 0l49.4977 49.4974Zm-112.4977 0 31.5 31.5 49.4974-49.4974-31.5-31.5-49.4974 49.4974Zm80.9974 31.5 31.5003-31.5-49.4977-49.4974-31.5 31.5 49.4974 49.4974Z"></path></symbol><symbol id="bbburst-shape-8" viewBox="0 0 87 168"><path d="m12 12 31.2546 18.0749c16.4102 9.4902 20.014 31.6325 7.4603 45.8369L36.3296 92.1884c-12.5684 14.2206-8.9394 36.3916 7.5068 45.8636L75 156" stroke-width="14" stroke-linecap="round" stroke-linejoin="round"></path></symbol><symbol id="bbburst-shape-10" viewBox="0 0 145 145"><circle cx="72.5" cy="72.5" r="61.5" fill="none" stroke-width="22"></circle></symbol></defs><use xlink:href="#bbburst-shape-10" width="33.639651447915114" opacity="0.04634603114139413" transform="matrix(0.9899338144770027,-0.14153106710193072,0.14153106710193072,0.9899338144770027,566.3507188141374,362.42680868180054)" fill="none" stroke="#ffa6d5"></use><use xlink:href="#bbburst-shape-6" width="29.28009510862988" opacity="0.17817146485948843" transform="matrix(0.8185514198732401,0.5744332624626663,-0.5744332624626663,0.8185514198732401,682.2723481187179,428.3277606743457)" fill="#ff5c58"></use><use xlink:href="#bbburst-shape-4" width="14.999099705049733" opacity="0.751180892333071" transform="matrix(0.9999765894131426,-0.006842559876191443,0.006842559876191443,0.9999765894131426,499.92852006228026,-19.942536169970253)" fill="#ffbd9b"></use><use xlink:href="#bbburst-shape-6" width="24.93319317622892" opacity="0.5513775578806116" transform="matrix(0.9165660797221703,-0.3998832598430848,0.3998832598430848,0.9165660797221703,121.5100174356777,209.4816396042529)" fill="#2c2891"></use><use xlink:href="#bbburst-shape-8" width="42.78477402658592" opacity="0.3293091633539188" transform="matrix(0.8900201268380816,-0.45592123642480736,0.45592123642480736,0.8900201268380816,365.59225997375654,-197.65222395366547)" fill="none" stroke="#ffbd9b"></use><use xlink:href="#bbburst-shape-8" width="15.32605406013782" opacity="0.7907959619238137" transform="matrix(0.8864397279628544,-0.4628440435925914,0.4628440435925914,0.8864397279628544,284.5882055924187,-5.870476178455817)" fill="none" stroke="#2c2891"></use><use xlink:href="#bbburst-shape-6" width="37.786605756213184" opacity="0.2794106870296762" transform="matrix(0.9993266797996708,-0.03669042164606778,0.03669042164606778,0.9993266797996708,646.1613393731535,164.9925744965766)" fill="#ffbd9b"></use><use xlink:href="#bbburst-shape-6" width="38.593559144236195" opacity="0.44012828125598247" transform="matrix(0.8729416617311622,-0.48782461521948356,0.48782461521948356,0.8729416617311622,-52.03624439794581,136.6918893303557)" fill="#2c2891"></use><use xlink:href="#bbburst-shape-4" width="16.114340298351284" opacity="0.7981663436651657" transform="matrix(0.8855262605041975,0.4645893261337932,-0.4645893261337932,0.8855262605041975,491.8334715144424,68.6004567064146)" fill="#ff5c58"></use><use xlink:href="#bbburst-shape-10" width="28.41557523109865" opacity="0.4498450475499721" transform="matrix(0.9419080651125665,0.3358708038456172,-0.3358708038456172,0.9419080651125665,708.1444520859935,-143.56901266631763)" fill="none" stroke="#ff5c58"></use><use xlink:href="#bbburst-shape-10" width="19.400672259519276" opacity="0.6864380304394193" transform="matrix(0.9994503861343432,0.03315004760045317,-0.03315004760045317,0.9994503861343432,284.92583725133966,76.28396745759801)" fill="none" stroke="#ff5c58"></use><use xlink:href="#bbburst-shape-10" width="14.526424641489166" opacity="0.7898824638755726" transform="matrix(0.9981967713505583,0.060026707933396144,-0.060026707933396144,0.9981967713505583,376.98081125066864,86.0630367018735)" fill="none" stroke="#2c2891"></use><use xlink:href="#bbburst-shape-8" width="34.46569306795383" opacity="0.2296259784142447" transform="matrix(0.9093649474208958,0.4159992697135315,-0.4159992697135315,0.9093649474208958,324.2790715638471,291.5722273668423)" fill="none" stroke="#ffa6d5"></use><use xlink:href="#bbburst-shape-1" width="14.39646401895013" opacity="0.888617337846442" transform="matrix(0.8872515817140958,0.46128584494414654,-0.46128584494414654,0.8872515817140958,530.9731271010004,58.80978534853051)" fill="#ffa6d5"></use><use xlink:href="#bbburst-shape-6" width="41.26023535798834" opacity="-0.08713517263842907" transform="matrix(0.7585522664630013,0.6516121998887404,-0.6516121998887404,0.7585522664630013,992.4739147843098,427.4998468848384)" fill="#00a19d"></use><use xlink:href="#bbburst-shape-4" width="20.766187444248626" opacity="0.14269650110393184" transform="matrix(0.7587633615881743,0.651366380089895,-0.651366380089895,0.7587633615881743,538.0780835562546,458.1248791572884)" fill="#2c2891"></use><use xlink:href="#bbburst-shape-10" width="21.72057087696448" opacity="0.6067022402172407" transform="matrix(0.8674543546245443,0.4975167762426865,-0.4975167762426865,0.8674543546245443,636.1570710504774,-123.13169200717249)" fill="none" stroke="#ffa6d5"></use><use xlink:href="#bbburst-shape-10" width="32.72682134558654" opacity="0.5107348270953014" transform="matrix(0.9989839062148792,0.045068338372536904,-0.045068338372536904,0.9989839062148792,428.4703698644394,218.202348562525)" fill="none" stroke="#ff5c58"></use><use xlink:href="#bbburst-shape-4" width="28.854743745211017" opacity="0.5298497732189853" transform="matrix(0.9671524333479926,0.2541971098754992,-0.2541971098754992,0.9671524333479926,315.8406621374579,132.86143115657694)" fill="#ffa6d5"></use><use xlink:href="#bbburst-shape-8" width="40.04347408977809" opacity="0.16601632314005932" transform="matrix(0.9499221936756607,0.31248652124919013,-0.31248652124919013,0.9499221936756607,865.5687802095306,121.18620222635394)" fill="none" stroke="#00a19d"></use><use xlink:href="#bbburst-shape-6" width="16.433312071284536" opacity="0.8833436794811922" transform="matrix(0.9610375709497128,0.27641777660468186,-0.27641777660468186,0.9610375709497128,529.291377640769,58.55872762373332)" fill="#00a19d"></use><use xlink:href="#bbburst-shape-10" width="32.23888319420641" opacity="0.5004887587606714" transform="matrix(0.8372971586578389,0.5467480846820678,-0.5467480846820678,0.8372971586578389,395.82443901915815,-25.505715492740762)" fill="none" stroke="#2c2891"></use><use xlink:href="#bbburst-shape-4" width="30.464542429992544" opacity="0.5971739760266865" transform="matrix(0.997050558786805,0.07674752909976808,-0.07674752909976808,0.997050558786805,242.03693960892235,52.637723193938314)" fill="#2c2891"></use><use xlink:href="#bbburst-shape-4" width="26.976151999332487" opacity="0.6764908357740201" transform="matrix(0.8077160746752787,-0.5895716603697634,0.5895716603697634,0.8077160746752787,16.963591988381722,33.81632683709995)" fill="#2c2891"></use><use xlink:href="#bbburst-shape-10" width="17.047020091591975" opacity="0.8161749178757157" transform="matrix(0.881188777234419,0.47276457024200685,-0.47276457024200685,0.881188777234419,502.0388359451159,20.831568271262597)" fill="none" stroke="#ffa6d5"></use><use xlink:href="#bbburst-shape-8" width="35.116751799452956" opacity="0.13539144617643473" transform="matrix(0.9251124406735387,-0.37969326055521235,0.37969326055521235,0.9251124406735387,485.17437290834175,-258.7085227333647)" fill="none" stroke="#ffbd9b"></use><use xlink:href="#bbburst-shape-10" width="39.44237378614464" opacity="0.3114520160859403" transform="matrix(0.9992714748835632,0.03816437453998571,-0.03816437453998571,0.9992714748835632,134.17634955359839,165.9240509702176)" fill="none" stroke="#ff5c58"></use><use xlink:href="#bbburst-shape-4" width="31.41059277710766" opacity="0.3465327118730377" transform="matrix(0.7982038085646755,0.60238748326376,-0.60238748326376,0.7982038085646755,693.0904475114817,358.1373287479038)" fill="#ffa6d5"></use><use xlink:href="#bbburst-shape-6" width="42.92565563162337" opacity="0.20781788469229157" transform="matrix(0.9994731697396904,0.03245586188188598,-0.03245586188188598,0.9994731697396904,293.9361535369474,-343.3478402246405)" fill="#ffbd9b"></use><use xlink:href="#bbburst-shape-10" width="35.140870260700666" opacity="0.12111709494724865" transform="matrix(0.9998689607344783,-0.0161883093544146,0.0161883093544146,0.9998689607344783,14.720621350307383,161.35467256836705)" fill="none" stroke="#2c2891"></use><use xlink:href="#bbburst-shape-4" width="13.014546624081824" opacity="0.9227178414805408" transform="matrix(0.8877914269953925,0.4602460017789233,-0.4602460017789233,0.8877914269953925,573.6043316783536,7.442644774481664)" fill="#00a19d"></use><use xlink:href="#bbburst-shape-4" width="16.153789398851618" opacity="0.6427566654154027" transform="matrix(0.811456132934682,-0.5844133334573156,0.5844133334573156,0.811456132934682,126.76063619398988,237.5006814975784)" fill="#ffa6d5"></use><use xlink:href="#bbburst-shape-4" width="26.48218448030848" opacity="0.7178846730023591" transform="matrix(0.9962480409121568,-0.08654386736614826,0.08654386736614826,0.9962480409121568,427.04604854631,-99.8662363551577)" fill="#ffbd9b"></use><use xlink:href="#bbburst-shape-10" width="15.726230370477762" opacity="0.912418907840885" transform="matrix(0.9974803718964672,0.07094298895088483,-0.07094298895088483,0.9974803718964672,385.57056173734594,-17.73871695121261)" fill="none" stroke="#ffa6d5"></use><use xlink:href="#bbburst-shape-4" width="27.408421154845847" opacity="0.5634900746256146" transform="matrix(0.9966902408211946,0.08129307382421384,-0.08129307382421384,0.9966902408211946,533.5305922486286,-159.2468466863062)" fill="#ffbd9b"></use><use xlink:href="#bbburst-shape-4" width="37.934610906603815" opacity="0.08685575677820223" transform="matrix(0.8154161545132086,0.5788751980858147,-0.5788751980858147,0.8154161545132086,418.5306400194696,-297.4397712491382)" fill="#ffa6d5"></use><use xlink:href="#bbburst-shape-10" width="30.55680800735201" opacity="0.5994709937961478" transform="matrix(0.8346213642640005,0.5508240901722605,-0.5508240901722605,0.8346213642640005,427.71627129936815,46.094012913500535)" fill="none" stroke="#2c2891"></use><use xlink:href="#bbburst-shape-1" width="34.049470004565194" opacity="0.18910777855465766" transform="matrix(0.9770283788283534,0.21310923716263389,-0.21310923716263389,0.9770283788283534,466.4565212639758,-359.2918067725023)" fill="#2c2891"></use><use xlink:href="#bbburst-shape-1" width="14.043450172119734" opacity="0.8643456674370804" transform="matrix(0.8278370500986045,0.5609686430488255,-0.5609686430488255,0.8278370500986045,678.43026652343,53.00351892238342)" fill="#ffa6d5"></use><use xlink:href="#bbburst-shape-4" width="25.175587309341147" opacity="0.5726856008673971" transform="matrix(0.938880978134789,-0.3442419336697111,0.3442419336697111,0.938880978134789,398.2633326532409,151.84631758416128)" fill="#ffbd9b"></use><use xlink:href="#bbburst-shape-10" width="24.085412985899357" opacity="0.6763107485912256" transform="matrix(0.9239173260657876,-0.38259217790676947,0.38259217790676947,0.9239173260657876,151.42884635975597,153.75109583768597)" fill="none" stroke="#ff5c58"></use><use xlink:href="#bbburst-shape-6" width="25.53145084241544" opacity="0.39506400351143034" transform="matrix(0.9998069833689424,0.01964678107719756,-0.01964678107719756,0.9998069833689424,282.1547274921056,247.51355093569532)" fill="#ffa6d5"></use><use xlink:href="#bbburst-shape-1" width="46.48084721893965" opacity="0.04186331771829155" transform="matrix(0.8336963180459231,0.5522231879201297,-0.5522231879201297,0.8336963180459231,954.6451532469646,-193.59858898047554)" fill="#ffa6d5"></use><use xlink:href="#bbburst-shape-1" width="26.813840772937688" opacity="0.5202485237110654" transform="matrix(0.9438962140530118,0.33024224002448693,-0.33024224002448693,0.9438962140530118,472.9299559359042,228.867313267846)" fill="#2c2891"></use><use xlink:href="#bbburst-shape-10" width="19.872790623999578" opacity="0.7085805838963367" transform="matrix(0.9988415786105983,-0.04811965127354857,0.04811965127354857,0.9988415786105983,350.41491313470976,-128.59885560694164)" fill="none" stroke="#2c2891"></use><use xlink:href="#bbburst-shape-6" width="35.354546430453624" opacity="0.21916662896151062" transform="matrix(0.9671701069604671,-0.2541298569670209,0.2541298569670209,0.9671701069604671,372.4066306842655,-321.72044540257656)" fill="#ff5c58"></use><use xlink:href="#bbburst-shape-4" width="14.73553491314854" opacity="0.796027836108429" transform="matrix(0.9937369844665647,-0.11174437660705192,0.11174437660705192,0.9937369844665647,280.3500234022252,65.3969369708862)" fill="#ffa6d5"></use><use xlink:href="#bbburst-shape-6" width="31.83847996680693" opacity="0.45512259022965607" transform="matrix(0.8377261371352457,0.5460905777986463,-0.5460905777986463,0.8377261371352457,359.93495812061167,52.39810526866654)" fill="#ffa6d5"></use><use xlink:href="#bbburst-shape-1" width="27.863186486707395" opacity="0.33450658404954803" transform="matrix(0.7900889985400593,0.6129921487147826,-0.6129921487147826,0.7900889985400593,933.3765711912376,62.90207611482532)" fill="#ffa6d5"></use><use xlink:href="#bbburst-shape-1" width="26.865140729507768" opacity="0.6441146365977621" transform="matrix(0.9876236169954852,0.15684256805075372,-0.15684256805075372,0.9876236169954852,583.6929704091027,-84.4744682197229)" fill="#2c2891"></use><use xlink:href="#bbburst-shape-4" width="29.535154943015534" opacity="0.3977507346484199" transform="matrix(0.9977903349277046,-0.0664413088737654,0.0664413088737654,0.9977903349277046,260.03109098933976,-250.5244598850509)" fill="#ffa6d5"></use><use xlink:href="#bbburst-shape-6" width="37.33602514118938" opacity="-0.06450039509045125" transform="matrix(0.9538382622809106,-0.3003207775178615,0.3003207775178615,0.9538382622809106,-62.429313826702355,-328.30360449584856)" fill="#00a19d"></use><use xlink:href="#bbburst-shape-6" width="29.601277513599275" opacity="0.6193555583915447" transform="matrix(0.9937848828627057,-0.11131759336941421,0.11131759336941421,0.9937848828627057,506.7557288190609,46.40831474852996)" fill="#2c2891"></use><use xlink:href="#bbburst-shape-6" width="40.070364448609325" opacity="0.009392634462828564" transform="matrix(0.9313731264977606,-0.36406606438637823,0.36406606438637823,0.9313731264977606,-126.04507184901883,-225.72464693091382)" fill="#ffa6d5"></use><use xlink:href="#bbburst-shape-4" width="26.745022650168647" opacity="0.36593281248515197" transform="matrix(0.9340200932974971,0.3572204715809758,-0.3572204715809758,0.9340200932974971,527.1838461739344,-263.6745218169701)" fill="#2c2891"></use><use xlink:href="#bbburst-shape-6" width="28.373057361503918" opacity="0.6362963060105462" transform="matrix(0.7934085685580129,-0.6086894473692844,0.6086894473692844,0.7934085685580129,307.0228880581757,66.32500311531669)" fill="#2c2891"></use><use xlink:href="#bbburst-shape-6" width="31.23497612832861" opacity="0.5819435080375097" transform="matrix(0.833833949205549,0.5520153486564281,-0.5520153486564281,0.833833949205549,546.1705135485329,-119.90423622601159)" fill="#2c2891"></use><use xlink:href="#bbburst-shape-6" width="34.934522349296095" opacity="0.29863980861980344" transform="matrix(0.9858899597825375,-0.16739470481465837,0.16739470481465837,0.9858899597825375,488.1728018911981,272.9657269921271)" fill="#ffa6d5"></use><use xlink:href="#bbburst-shape-4" width="40.28772212058685" opacity="0.23159875591797008" transform="matrix(0.7320819515582887,-0.681216570704653,0.681216570704653,0.7320819515582887,-95.987402237326,-154.7204495342383)" fill="#ffa6d5"></use><use xlink:href="#bbburst-shape-6" width="20.430512522432892" opacity="0.6926190398284471" transform="matrix(0.9999699285938574,-0.007755121404325623,0.007755121404325623,0.9999699285938574,465.12148392503707,114.02226573267814)" fill="#2c2891"></use><use xlink:href="#bbburst-shape-4" width="16.52524833029701" opacity="0.7229476784376448" transform="matrix(0.7669760244406821,0.6416757576324402,-0.6416757576324402,0.7669760244406821,678.602366503352,-33.50486209331132)" fill="#00a19d"></use><use xlink:href="#bbburst-shape-10" width="18.89131615927516" opacity="0.8426426434553056" transform="matrix(0.9230605013280446,0.3846547944430419,-0.3846547944430419,0.9230605013280446,547.1057487127349,97.92608807248399)" fill="none" stroke="#2c2891"></use><use xlink:href="#bbburst-shape-10" width="39.353332615637854" opacity="0.0456990492563647" transform="matrix(0.9201741923396235,0.3915092026403996,-0.3915092026403996,0.9201741923396235,297.19545241217486,379.4562289818215)" fill="none" stroke="#2c2891"></use><use xlink:href="#bbburst-shape-1" width="16.56176264117707" opacity="0.740640909441272" transform="matrix(0.8982606713676476,0.4394630431266582,-0.4394630431266582,0.8982606713676476,555.4852766240947,153.07755730345684)" fill="#ffa6d5"></use><use xlink:href="#bbburst-shape-10" width="43.6254520549836" opacity="0.16686453320452854" transform="matrix(0.9545848718514456,0.2979391253802681,-0.2979391253802681,0.9545848718514456,764.4535623152183,275.7675399325)" fill="none" stroke="#ff5c58"></use><use xlink:href="#bbburst-shape-8" width="14.931659401697724" opacity="0.7640072063130093" transform="matrix(0.9581096368601949,-0.2864016825293201,0.2864016825293201,0.9581096368601949,309.72020494874977,120.3323192830382)" fill="none" stroke="#ffa6d5"></use><use xlink:href="#bbburst-shape-6" width="29.89685167015853" opacity="0.18413027416726901" transform="matrix(0.7501242142603541,0.6612969553689828,-0.6612969553689828,0.7501242142603541,1020.2525816485204,78.12657571989041)" fill="#ffa6d5"></use><use xlink:href="#bbburst-shape-1" width="29.790671552564902" opacity="0.20810596763403155" transform="matrix(0.987158367034097,-0.15974466624765607,0.15974466624765607,0.987158367034097,299.80782554872985,363.2513035919049)" fill="#ffbd9b"></use><use xlink:href="#bbburst-shape-10" width="32.876395016437876" opacity="0.5260197955339272" transform="matrix(0.8972109858096387,-0.44160213647863666,0.44160213647863666,0.8972109858096387,202.5821419834254,-164.83113069110516)" fill="none" stroke="#2c2891"></use><use xlink:href="#bbburst-shape-6" width="20.073157785883797" opacity="0.8251214953319959" transform="matrix(0.9961259704855046,-0.0879377673375423,0.0879377673375423,0.9961259704855046,370.2834573747273,-74.73010968232103)" fill="#00a19d"></use><use xlink:href="#bbburst-shape-1" width="14.413656344334097" opacity="0.871888251138883" transform="matrix(0.7307905320845396,-0.6826017859745135,0.6826017859745135,0.7307905320845396,175.2363934137859,134.01708817796782)" fill="#ffa6d5"></use><use xlink:href="#bbburst-shape-6" width="19.52251494558378" opacity="0.7648315393949713" transform="matrix(0.9987037101140072,0.05090087822933161,-0.05090087822933161,0.9987037101140072,513.0991260247297,26.39304448851061)" fill="#ffa6d5"></use><use xlink:href="#bbburst-shape-4" width="19.05862095661243" opacity="0.6448212714561682" transform="matrix(0.8149880631238466,-0.5794777450132498,0.5794777450132498,0.8149880631238466,192.06187475968915,236.21452631982447)" fill="#ffa6d5"></use><use xlink:href="#bbburst-shape-10" width="22.71316244979861" opacity="0.6733545202062409" transform="matrix(0.9766596362182434,0.21479281873947378,-0.21479281873947378,0.9766596362182434,391.802311102862,-114.40169260484907)" fill="none" stroke="#00a19d"></use><use xlink:href="#bbburst-shape-6" width="30.249650736631658" opacity="0.3874988898822084" transform="matrix(0.9862438385427672,0.1652969780014994,-0.1652969780014994,0.9862438385427672,239.010951968022,-172.9074971017745)" fill="#ffa6d5"></use><use xlink:href="#bbburst-shape-6" width="31.354092300411413" opacity="0.4809878411113879" transform="matrix(0.8040257867835185,0.5945944283182815,-0.5945944283182815,0.8040257867835185,837.4633018355282,166.56912941082481)" fill="#2c2891"></use><use xlink:href="#bbburst-shape-8" width="40.58102123588736" opacity="0.30188535438747255" transform="matrix(0.8722435850506292,0.48907170061047883,-0.48907170061047883,0.8722435850506292,265.75135568824817,6.030038928307249)" fill="none" stroke="#00a19d"></use><use xlink:href="#bbburst-shape-6" width="27.014966448708098" opacity="0.09637610117995454" transform="matrix(0.7569410608924434,0.6534831522962335,-0.6534831522962335,0.7569410608924434,840.1153356038394,-271.6694052556479)" fill="#ffbd9b"></use><use xlink:href="#bbburst-shape-8" width="32.621316628985184" opacity="0.37084072017170855" transform="matrix(0.815233565161742,-0.5791323115089296,0.5791323115089296,0.815233565161742,121.49106348948538,364.47832771079237)" fill="none" stroke="#2c2891"></use><use xlink:href="#bbburst-shape-4" width="13.868468706628764" opacity="0.9763787042240741" transform="matrix(0.9925867378927746,-0.12153833864003676,0.12153833864003676,0.9925867378927746,353.2132692471798,9.913606930926335)" fill="#00a19d"></use><use xlink:href="#bbburst-shape-10" width="38.381286628294355" opacity="0.0595698234186578" transform="matrix(0.8046580138687718,0.5937385625986942,-0.5937385625986942,0.8046580138687718,979.2223918888906,293.7297873823091)" fill="none" stroke="#00a19d"></use><use xlink:href="#bbburst-shape-4" width="39.799126489730256" opacity="0.4385899160148562" transform="matrix(0.9931124715804743,-0.11716492133450877,0.11716492133450877,0.9931124715804743,414.54797196805555,-234.11651733078165)" fill="#2c2891"></use><use xlink:href="#bbburst-shape-6" width="37.09946075112419" opacity="0.15261783203106838" transform="matrix(0.9093364921829588,-0.4160614665940499,0.4160614665940499,0.9093364921829588,574.5017839491217,-87.88672626094325)" fill="#00a19d"></use><use xlink:href="#bbburst-shape-10" width="32.944037845695156" opacity="0.2556200333033769" transform="matrix(0.8872260925945246,-0.461334868202537,0.461334868202537,0.8872260925945246,-124.13694042887764,133.87496358641312)" fill="none" stroke="#ffa6d5"></use><use xlink:href="#bbburst-shape-8" width="31.319756668636764" opacity="0.15919685085397928" transform="matrix(0.9973095605989741,-0.07330511808790163,0.07330511808790163,0.9973095605989741,502.1805632485709,350.81121237778694)" fill="none" stroke="#ffbd9b"></use><use xlink:href="#bbburst-shape-10" width="33.592155489643815" opacity="0.49879390564627546" transform="matrix(0.9999913966460157,-0.004148087987362694,0.004148087987362694,0.9999913966460157,607.0771261653564,-2.095425259654462)" fill="none" stroke="#ffa6d5"></use><use xlink:href="#bbburst-shape-8" width="42.02057627571141" opacity="0.3284578852112192" transform="matrix(0.9998009107979796,-0.019953414934048546,0.019953414934048546,0.9998009107979796,92.49890469681768,-116.7672971420917)" fill="none" stroke="#2c2891"></use><use xlink:href="#bbburst-shape-10" width="21.43435874826685" opacity="0.5757928643231702" transform="matrix(0.8265812751358296,0.5628173732169486,-0.5628173732169486,0.8265812751358296,714.6432116609649,226.9284425930394)" fill="none" stroke="#2c2891"></use><use xlink:href="#bbburst-shape-10" width="16.14127570327016" opacity="0.9030910283827341" transform="matrix(0.8614834236773984,0.5077856937026368,-0.5077856937026368,0.8614834236773984,576.7804779571934,90.37408543329815)" fill="none" stroke="#ffa6d5"></use><use xlink:href="#bbburst-shape-1" width="20.925804015489287" opacity="0.719150765356168" transform="matrix(0.9155400571773132,-0.40222680629684787,0.40222680629684787,0.9155400571773132,103.57085524003102,48.21479275195384)" fill="#00a19d"></use><use xlink:href="#bbburst-shape-6" width="32.42210640458962" opacity="0.3467655806790101" transform="matrix(0.884597306886207,0.46635566325463423,-0.46635566325463423,0.884597306886207,850.7193941285009,-55.40833549086284)" fill="#00a19d"></use><use xlink:href="#bbburst-shape-10" width="16.7498229470064" opacity="0.8894784334179731" transform="matrix(0.911766841732202,0.4107082009379477,-0.4107082009379477,0.911766841732202,588.6607585193999,-6.207917948496231)" fill="none" stroke="#00a19d"></use><use xlink:href="#bbburst-shape-10" width="38.4810953284384" opacity="0.07302543259897809" transform="matrix(0.8148911139596912,0.5796140719388493,-0.5796140719388493,0.8148911139596912,283.6062221281749,314.7011495198082)" fill="none" stroke="#00a19d"></use><use xlink:href="#bbburst-shape-1" width="40.206354397019176" opacity="0.190773029604428" transform="matrix(0.9674972591404525,0.25288150101522283,-0.25288150101522283,0.9674972591404525,191.59322520959074,-212.14795478350717)" fill="#ffa6d5"></use><use xlink:href="#bbburst-shape-4" width="36.0481203893252" opacity="0.17710707050661412" transform="matrix(0.7971331501035436,0.6038035616042701,-0.6038035616042701,0.7971331501035436,256.92372822360784,78.52059568196051)" fill="#ffbd9b"></use><use xlink:href="#bbburst-shape-8" width="27.183607275107946" opacity="0.45456279193634697" transform="matrix(0.9405029064169214,-0.3397856427533741,0.3397856427533741,0.9405029064169214,358.9417208790168,249.00255470819224)" fill="none" stroke="#00a19d"></use><use xlink:href="#bbburst-shape-10" width="46.55596963869848" opacity="0.2674402077668987" transform="matrix(0.9075638808020372,0.41991404151748196,-0.41991404151748196,0.9075638808020372,814.7075922887602,-164.93823357121065)" fill="none" stroke="#ffa6d5"></use><use xlink:href="#bbburst-shape-10" width="28.517608556973062" opacity="0.5843803162780208" transform="matrix(0.997790035963445,0.06644579845307869,-0.06644579845307869,0.997790035963445,265.3302956164262,-115.66923333554638)" fill="none" stroke="#ffa6d5"></use><use xlink:href="#bbburst-shape-6" width="32.272989359743434" opacity="0.2339190581990973" transform="matrix(0.9987097658948939,-0.05078192105627931,0.05078192105627931,0.9987097658948939,216.3812493047903,313.07010240102403)" fill="#ffbd9b"></use><use xlink:href="#bbburst-shape-6" width="38.92990990248289" opacity="0.35690767924878153" transform="matrix(0.7774570397752175,0.6289360470699353,-0.6289360470699353,0.7774570397752175,917.9015143723836,144.06151413160205)" fill="#ffa6d5"></use><use xlink:href="#bbburst-shape-4" width="38.48912177274809" opacity="-0.08639759784369017" transform="matrix(0.9324672805282759,0.3612544404491128,-0.3612544404491128,0.9324672805282759,863.038624735731,-334.5529581732401)" fill="#00a19d"></use><use xlink:href="#bbburst-shape-10" width="44.88135734691426" opacity="-0.09429344421312535" transform="matrix(0.9881841102673509,-0.15327153752449968,0.15327153752449968,0.9881841102673509,-33.25327506884376,354.79375834654854)" fill="none" stroke="#00a19d"></use><use xlink:href="#bbburst-shape-10" width="26.753629906395258" opacity="0.4070044901695561" transform="matrix(0.8869343677497064,-0.46189547227097666,0.46189547227097666,0.8869343677497064,397.2569094131759,234.75870930608778)" fill="none" stroke="#ffa6d5"></use><use xlink:href="#bbburst-shape-10" width="27.307231700117203" opacity="0.4124701420867628" transform="matrix(0.7666265701145059,-0.6420932190846346,0.6420932190846346,0.7666265701145059,-44.77779922721484,298.08684806982797)" fill="none" stroke="#00a19d"></use><use xlink:href="#bbburst-shape-6" width="38.17736641128284" opacity="0.1446386498643616" transform="matrix(0.8433925080587228,-0.5372979409512167,0.5372979409512167,0.8433925080587228,-193.1923032127351,-57.43694420909452)" fill="#00a19d"></use><use xlink:href="#bbburst-shape-4" width="16.134467899000736" opacity="0.7543057222003947" transform="matrix(0.9986580261645446,0.05178944658070574,-0.05178944658070574,0.9986580261645446,326.6742312874649,-69.3699283253136)" fill="#ff5c58"></use><use xlink:href="#bbburst-shape-1" width="24.669725618349574" opacity="0.5092037545929444" transform="matrix(0.9804347898022203,0.19684415903317015,-0.19684415903317015,0.9804347898022203,670.4839009982983,-79.5719589370272)" fill="#ffa6d5"></use><use xlink:href="#bbburst-shape-10" width="23.11755663551745" opacity="0.8225348842287111" transform="matrix(0.7864095035354445,0.6177055064908648,-0.6177055064908648,0.7864095035354445,601.7240339821483,7.147657115163213)" fill="none" stroke="#ff5c58"></use><use xlink:href="#bbburst-shape-6" width="20.873890150081237" opacity="0.6942730491513385" transform="matrix(0.9156468360360335,0.4019836708837825,-0.4019836708837825,0.9156468360360335,666.9991287539251,103.8867819214413)" fill="#ffa6d5"></use><use xlink:href="#bbburst-shape-4" width="33.23428401386354" opacity="0.4783040011015949" transform="matrix(0.8616180004580902,-0.5075573083767018,0.5075573083767018,0.8616180004580902,43.719856856259014,-125.4099345249603)" fill="#ffa6d5"></use><use xlink:href="#bbburst-shape-6" width="22.37838797437609" opacity="0.7963143349778748" transform="matrix(0.830173936512043,-0.5575044709561516,0.5575044709561516,0.830173936512043,232.17307577879828,139.32786546074698)" fill="#00a19d"></use></svg>